<svg width="29.37" height="255.06" version="1.1" viewBox="0 0 7.7707984 67.485338" xmlns="http://www.w3.org/2000/svg">
	<g transform="translate(-7.0399 -130.24)" fill="#00f">
		<path d="m8.1664 134.9c0.2667 0.15804 0.50377-0.22719 0.24694-0.38523-0.59267-0.36584-0.90876-1.0375-0.90876-1.7096 0-1.3734 1.3635-2.1142 2.5887-2.1142 1.2446 0 2.45 0.7112 2.45 2.0846 0 0.79058-0.36548 1.4623-1.1952 1.5713-0.30656 0.0296-0.2473 0.48401 0.05927 0.45438 1.0668-0.15804 1.6006-0.98813 1.6006-2.0256 0-1.6302-1.4129-2.5393-2.9146-2.5393-1.4922 0-3.0533 0.93874-3.0533 2.5689 0 0.83009 0.41522 1.6503 1.1264 2.0948m-0.94862 4.6242c0 0.30621 0.45473 0.30621 0.45473 0v-3.2212h2.2228v1.6104c0 0.30656 0.45473 0.30656 0.45473 0v-1.6104h2.0055v3.0134c0 0.30657 0.45473 0.30657 0.45473 0v-3.1912c0.02963-0.12842-0.05927-0.27658-0.22719-0.27658h-5.1382c-0.069144 0-0.11853 0.0197-0.16792 0.0691-0.039511 0.0296-0.059267 0.079-0.059267 0.15805zm5.3654 4.7029c0.30621 0 0.30621-0.45438 0-0.45438h-4.318l4.4365-2.6977c0.0889-0.0494 0.11853-0.12841 0.10866-0.22719-0.0099-0.10865-0.07902-0.20743-0.22719-0.20743h-5.1382c-0.30621 0-0.30621 0.45438 0 0.45438h4.3279l-4.4168 2.6878c-0.049389 0.01-0.079022 0.0395-0.10866 0.0889-0.049389 0.0494-0.049389 0.11853-0.019756 0.18768 0.00988 0.0691 0.049389 0.11853 0.11853 0.14816 0.049389 0.0198 0.098778 0.0296 0.13864 0.0198zm-0.19791 5.1379c0 0.30621 0.45473 0.30621 0.45473 0v-4.209c0-0.30656-0.45473-0.30656-0.45473 0v1.8771h-4.9103c-0.30656 0-0.30656 0.45438 0 0.45438h4.9103zm-1.0968 4.2386c-0.64206 0-1.0964-0.63253-1.0964-1.2252v-1.5413h2.1932v1.5314c0 0.60254-0.45438 1.2351-1.0968 1.2351m-1.561-1.5215v0.29633c0 0.83997 0.66216 1.6796 1.561 1.6796 0.88935 0 1.5515-0.82974 1.5515-1.6894v-1.7388c0-0.16792-0.07902-0.24729-0.22719-0.24729h-5.1678c-0.30621 0-0.30621 0.45473 0 0.45473h2.2825v0.60254l-2.4208 2.4109c-0.21731 0.21732 0.099131 0.53376 0.31644 0.31609zm-2.5097 6.7285c0 0.30621 0.45473 0.30621 0.45473 0v-3.2212h2.2228v1.6108c0 0.30621 0.45473 0.30621 0.45473 0v-1.6108h2.0055v3.0138c0 0.30621 0.45473 0.30621 0.45473 0v-3.1916c0.02963-0.12841-0.05927-0.27658-0.22719-0.27658h-5.1382c-0.069144 0-0.11853 0.0197-0.16792 0.0691-0.039511 0.0296-0.059267 0.079-0.059267 0.15805zm4.0707 7.4101c-0.64206 0-1.0964-0.63218-1.0964-1.2252v-1.5413h2.1932v1.5314c0 0.6029-0.45438 1.2351-1.0968 1.2351m-1.561-1.5215v0.29633c0 0.83996 0.66216 1.6796 1.561 1.6796 0.88935 0 1.5515-0.82974 1.5515-1.6895v-1.7388c0-0.16792-0.07902-0.24694-0.22719-0.24694h-5.1678c-0.30621 0-0.30621 0.45437 0 0.45437h2.2825v0.60255l-2.4208 2.4109c-0.21731 0.21731 0.099131 0.53375 0.31644 0.31609zm-2.5097 6.6298c0 0.30621 0.45473 0.30621 0.45473 0v-3.2212h2.2228v1.6108c0 0.30621 0.45473 0.30621 0.45473 0v-1.6108h2.0055v3.0138c0 0.30621 0.45473 0.30621 0.45473 0v-3.1916c0.02963-0.12842-0.05927-0.27658-0.22719-0.27658h-5.1382c-0.069144 0-0.11853 0.0198-0.16792 0.0691-0.039511 0.0296-0.059267 0.079-0.059267 0.15805zm6.3828-2.6875c-0.20743-0.23707-0.54328 0.0691-0.34572 0.29633l1.1561 1.3437c0.18768 0.23707 0.5334-0.0593 0.34572-0.29633zm-2.0846 7.7858c0.95814-0.12841 1.4919-1.1363 1.4919-2.0355 0-1.6302-1.4129-2.5393-2.9146-2.5393-1.4922 0-3.0533 0.93874-3.0533 2.5689 0 0.75106 0.33584 1.4623 0.89923 1.9269 0.029633 0.0296 0.059267 0.0494 0.098778 0.0691 0.069144 0.01 0.10866 0.0198 0.11853 0.01h0.98813l0.34572-0.01c0.069144 0 0.11853-0.0198 0.15804-0.0593 0.049389-0.0494 0.069144-0.0988 0.069144-0.16792v-1.6207c0-0.30622-0.45438-0.30622-0.45438 0v1.3931h-1.0672c-0.43462-0.38524-0.69144-0.94827-0.69144-1.5413 0-1.3734 1.3635-2.1142 2.5887-2.1142 1.2446 0 2.45 0.7112 2.45 2.0846 0 0.6424-0.36548 1.482-1.0866 1.5907-0.30656 0.0296-0.2473 0.47449 0.05927 0.44485m1.1165 1.5512c0.30621 0 0.30621-0.45473 0-0.45473h-5.1876c-0.30621 0-0.30621 0.45473 0 0.45473zm-2.6084 5.5132c-1.2256 0-2.5195-0.71155-2.5195-2.0849 0-1.3734 1.294-2.0849 2.5195-2.0849 1.2248 0 2.5192 0.70167 2.5192 2.0849 0 1.3734-1.2943 2.0849-2.5192 2.0849m0 0.45438c1.4919 0 2.9838-0.90911 2.9838-2.5393 0-1.6302-1.5117-2.5393-2.9838-2.5393-1.4923 0-2.9841 0.90911-2.9841 2.5393 0 1.6302 1.4919 2.5393 2.9841 2.5393m2.559 4.4757c0.30621 0 0.30621-0.45438 0-0.45438h-4.318l4.4365-2.6973c0.0889-0.0494 0.11853-0.12841 0.10866-0.22719-0.0099-0.10901-0.07902-0.20778-0.22719-0.20778h-5.1382c-0.30621 0-0.30621 0.45473 0 0.45473h4.3279l-4.4168 2.6875c-0.049389 0.01-0.079022 0.0395-0.10866 0.0889-0.049389 0.0494-0.049389 0.11853-0.019756 0.18768 0.00988 0.0691 0.049389 0.11853 0.11853 0.14816 0.049389 0.0198 0.098778 0.0296 0.13864 0.0198zm-3.0632 3.9324v-1.8475l2.4109 0.92852zm3.0928-0.6918c0.06915 0 0.10866-0.0395 0.14817-0.079 0.02963-0.0296 0.04939-0.079 0.04939-0.14816 0-0.0494-0.01976-0.0988-0.04939-0.14817-0.03951-0.0395-0.07902-0.079-0.14817-0.0889l-5.0885-1.9364c-0.28681-0.10865-0.44485 0.29634-0.1584 0.42475l1.6898 0.65193v2.1837l-1.6898 0.64241c-0.29633 0.10866-0.12841 0.5334 0.1584 0.42475zm-5.395 5.8297c0 0.30621 0.45473 0.30621 0.45473 0v-2.8159h4.9107c0.30621 0 0.30621-0.45474 0-0.45474h-5.1382c-0.069144 0-0.11853 0.0198-0.16792 0.0691-0.039511 0.0296-0.059267 0.079-0.059267 0.15804z" fill="#00f"/>
	</g>
</svg>
