<svg width="68.776" height="68.087" version="1.1" viewBox="0 0 18.196244 18.014298" xmlns="http://www.w3.org/2000/svg">
	<g transform="matrix(.6 0 0 .6 -4.8812 -96.065)" fill="#00f">
		<path transform="matrix(.26458 0 0 .26458 22.312 170.18)" d="m-52.568-38.07c-0.448-0.0013-0.97328 0.22272-0.97461 0.85742l-0.04102 19.42c-0.0027 1.1573 1.7141 1.1606 1.7168 2e-3l0.01758-7.7285 5.6387 0.0098c3.398 0.0076 6.7655-2.7494 6.7734-6.2578 0.0067-3.547-3.3481-6.2791-6.7461-6.2871l-6.3105-0.01562zm0.74219 1.7227 5.6406 0.01172c2.3893 0.0038 4.9975 2.0264 4.9922 4.5664v0.0039c-0.0053 2.576-2.6243 4.5131-5.0137 4.5078l-5.6387-0.01563zm28.902 0.21094c-4.9261 0.0015-8.6626 4.2184-9.8164 8.9492-1.3373 5.4773 0.66372 11.77 6.6504 13.23 5.9853 1.4614 10.661-3.201 11.998-8.6797 1.336-5.4773-0.66568-11.77-6.6523-13.23-0.74817-0.18266-1.476-0.26974-2.1797-0.26953zm-0.07422 1.75c0.59034-0.0029 1.205 0.06961 1.8398 0.22461 5.0427 1.2307 6.4938 6.6185 5.3965 11.117s-4.8694 8.6135-9.9121 7.3828-6.4952-6.6185-5.3965-11.117c0.96017-3.9364 3.9399-7.5873 8.0723-7.6074zm21.719 5.8301c-0.36269-0.06674-0.63798 0.09684-0.83398 0.46875l-9.1152 17.273c-0.54 1.024 0.97953 1.8248 1.5195 0.80078l4.0254-7.6289 2.0156 1.0645 3.7891 12.344c0.34401 1.1093 1.9592 0.61065 1.6152-0.5l-3.2578-10.713 0.99023 0.52344c2.808 1.4813 6.7825 0.74947 8.3691-2.2559 1.568-2.972-0.038773-6.65-2.9121-8.166l-5.8125-3.0664c-0.14033-0.07399-0.27168-0.12229-0.39258-0.14453zm0.28516 2.0293 5.1172 2.7031c2.0147 1.0627 3.3286 3.6971 2.1953 5.8438-1.132 2.1467-4.048 2.5492-6.0293 1.5039l-5.1523-2.7188zm18.842 9.0078c-0.64562 0.07349-1.1246 0.93962-0.47461 1.5156l5.3086 4.709-12.32 13.883c-0.768 0.86532 0.51716 2.0059 1.2852 1.1406l12.32-13.883 5.3066 4.709c0.86533 0.768 2.0053-0.5158 1.1387-1.2852l-11.898-10.559c-0.21667-0.192-0.45081-0.25497-0.66602-0.23047zm18.68 18.381c-0.21367-0.034648-0.45045 0.017556-0.67578 0.19922l-15.27 12.297c-0.90133 0.72665 0.17485 2.0645 1.0762 1.3379l15.27-12.297c0.676-0.544 0.24061-1.4332-0.40039-1.5371zm3.6348 11.779c-2.0427 0.02752-4.1311 0.58314-5.9766 1.5566-4.1947 2.2133-7.2232 6.5552-6.4219 11.115l-3.3164-1.1641c-0.08534-0.08126-0.23748-0.12859-0.4375-0.10742-0.21732-0.01134-0.4472 0.11098-0.64453 0.29883-0.16267 0.17083-0.24139 0.42304-0.21875 0.70703 0.072 0.21468 0.10974 0.36275 0.17774 0.41211l4.5996 8.7188c0.54 1.024 2.0589 0.22313 1.5176-0.80078l-3.502-6.6387-0.13867-0.26367 2.625 0.89453c0.08935 0.24945 0.14235 0.34757 0.26367 0.57812 2.876 5.4507 9.4665 5.8566 14.453 3.2246v2e-3c4.988-2.6307 8.3721-8.3013 5.4961-13.752-1.7967-3.4058-5.072-4.8271-8.4766-4.7812zm-0.18945 1.707c2.8442-0.10302 5.5883 1.0034 7.1133 3.8926 2.4227 4.592-0.64814 9.2527-4.7441 11.414-3.7653 1.9867-8.7257 2.1113-11.375-1.3887l1.0957 0.39453c1.112 0.42667 1.5927-1.2225 0.58203-1.6172l-2.9121-1.0371c-1.3947-4.1627 1.4572-8.285 5.2559-10.289 1.5355-0.8105 3.2779-1.3073 4.9844-1.3691zm15.756 21.754c-0.11662-0.01986-0.24605-0.0148-0.38672 0.01953l-12.299 3c-4.316 1.0534-7.2903 4.6235-6.1836 9.1582s5.3897 6.3346 9.707 5.2812l12.299-3.002c1.1253-0.27477 0.71775-1.9426-0.40625-1.668l-12.309 2.9648c-3.3747 0.82265-6.7451-0.3904-7.6211-3.9824-0.87733-3.592 1.5472-6.26 4.9219-7.084l12.299-3c0.9835-0.24042 0.79487-1.5485-0.02148-1.6875zm4.4238 24.506-19.418 0.04297c-0.26132 0-0.44615 0.07388-0.63281 0.26172-0.14933 0.11187-0.22402 0.29888-0.22266 0.59766l0.02734 13.031c0.0027 1.1573 1.7195 1.1532 1.7168-0.0039l-0.02539-12.172 8.4023-0.01953 0.01367 6.0859c0.0027 1.1573 1.7195 1.1546 1.7168-0.0039l-0.01172-6.0859 7.5801-0.01563 0.02539 11.391c0.0027 1.1573 1.7195 1.1532 1.7168-0.0039l-0.02734-11.949v-0.11328c0.11199-0.48533-0.22665-1.0443-0.86133-1.043z" fill="#00f"/>
	</g>
</svg>
