<?xml version="1.0" encoding="UTF-8" standalone="no"?>
<svg
   xmlns:dc="http://purl.org/dc/elements/1.1/"
   xmlns:cc="http://creativecommons.org/ns#"
   xmlns:rdf="http://www.w3.org/1999/02/22-rdf-syntax-ns#"
   xmlns:svg="http://www.w3.org/2000/svg"
   xmlns="http://www.w3.org/2000/svg"
   id="svg6"
   viewBox="0 0 52.763028 29.842739"
   version="1.1"
   height="112.79"
   width="199.42">
  <metadata
     id="metadata12">
    <rdf:RDF>
      <cc:Work
         rdf:about="">
        <dc:format>image/svg+xml</dc:format>
        <dc:type
           rdf:resource="http://purl.org/dc/dcmitype/StillImage" />
        <dc:title></dc:title>
      </cc:Work>
    </rdf:RDF>
  </metadata>
  <defs
     id="defs10" />
  <g
     id="g4"
     fill="#00f"
     transform="matrix(.65 0 0 .65 20.797 -97.676)">
    <path
       id="path2"
       transform="matrix(0.40705653,0,0,0.40705653,-31.996046,150.27077)"
       d="M 13.273438 -0.001953125 C 12.99438 -0.001953125 12.714844 0.18638059 12.714844 0.5625 L 12.714844 8.4765625 L 7.2519531 8.4765625 L 7.2519531 4.5195312 C 7.2519531 3.7663954 6.1367187 3.7663954 6.1367188 4.5195312 L 6.1367188 8.4765625 L 1.2089844 8.4765625 L 1.2089844 1.0722656 C 1.2089844 0.3200398 0.091796875 0.3200398 0.091796875 1.0722656 L 0.091796875 8.9121094 C 0.01900523 9.2275658 0.23787214 9.5917969 0.65039062 9.5917969 L 13.273438 9.5917969 C 13.443291 9.5917969 13.564221 9.5429929 13.685547 9.421875 C 13.782609 9.3491614 13.832031 9.2273792 13.832031 9.0332031 L 13.832031 0.5625 C 13.832031 0.18638059 13.552501 -0.001953125 13.273438 -0.001953125 z M 13.257812 11.792969 C 13.118281 11.786924 12.969399 11.837242 12.835938 11.970703 L 7.6660156 17.091797 L 7.6660156 16.365234 C 7.6660156 14.302642 6.041065 12.238281 3.8320312 12.238281 C 1.6472419 12.238281 0.01953125 14.277526 0.01953125 16.388672 L 0.01953125 20.660156 C 0.01953125 21.072675 0.21412778 21.267578 0.578125 21.267578 L 13.271484 21.267578 C 14.02371 21.267578 14.02371 20.150391 13.271484 20.150391 L 7.6640625 20.150391 L 7.6640625 18.669922 L 13.613281 12.748047 C 14.013671 12.347657 13.676402 11.811168 13.257812 11.792969 z M 3.8320312 13.355469 C 5.4093461 13.355469 6.5253906 14.909271 6.5253906 16.365234 L 6.5253906 20.150391 L 1.1367188 20.150391 L 1.1367188 16.388672 C 1.1367188 14.908465 2.2538715 13.355469 3.8320312 13.355469 z M 0.546875 23.505859 C 0.0014544007 23.530416 -0.25638031 24.358193 0.359375 24.591797 L 11.962891 29.375 L 0.359375 34.179688 C -0.32005268 34.496002 0.093157435 35.540111 0.796875 35.224609 L 13.539062 29.933594 C 13.611854 29.909024 13.709566 29.883261 13.806641 29.810547 C 13.927973 29.689188 14.001953 29.54488 14.001953 29.375 C 14.001953 29.229326 13.927973 29.084223 13.806641 28.962891 C 13.733849 28.890177 13.660388 28.840729 13.539062 28.816406 L 0.796875 23.548828 C 0.70891274 23.515464 0.62479501 23.502356 0.546875 23.505859 z M 13.326172 33.701172 C 13.248967 33.697662 13.166087 33.708824 13.078125 33.742188 L 0.58007812 38.476562 C 0.41022445 38.476562 0.31191228 38.574839 0.21484375 38.671875 C 0.14205211 38.744589 0.09375 38.865231 0.09375 39.035156 C 0.09375 39.156515 0.14205406 39.277183 0.21484375 39.398438 C 0.31190578 39.495474 0.41020495 39.592865 0.58007812 39.617188 L 13.078125 44.375 C 13.781862 44.641935 14.170495 43.647533 13.466797 43.332031 L 9.3164062 41.730469 L 9.3164062 36.365234 L 13.466797 34.787109 C 14.103781 34.553557 13.866614 33.725871 13.326172 33.701172 z M 8.1757812 36.777344 L 8.1757812 41.316406 L 2.2519531 39.035156 L 8.1757812 36.777344 z M 0.65039062 46.414062 C -0.1018352 46.414062 -0.1018352 47.554687 0.65039062 47.554688 L 6.1367188 47.554688 L 6.1367188 53.914062 L 0.65039062 53.914062 C -0.1018352 53.914062 -0.1018352 55.03125 0.65039062 55.03125 L 13.273438 55.03125 C 14.025663 55.03125 14.025663 53.914063 13.273438 53.914062 L 7.2519531 53.914062 L 7.2519531 47.554688 L 13.273438 47.554688 C 14.025663 47.554688 14.025663 46.414063 13.273438 46.414062 L 0.65039062 46.414062 z M 0.578125 65.248047 C -0.17410083 65.248047 -0.17410083 66.365234 0.578125 66.365234 L 8.8066406 66.390625 C 11.063383 66.390625 13.005859 67.676894 13.005859 70.080078 C 13.005859 72.483262 11.063383 73.792969 8.8066406 73.792969 L 0.578125 73.792969 C -0.17410083 73.792969 -0.17410083 74.910156 0.578125 74.910156 L 8.8066406 74.910156 C 11.694322 74.910156 14.121094 73.114201 14.121094 70.080078 C 14.121094 67.045955 11.694257 65.248047 8.8066406 65.248047 L 0.578125 65.248047 z M 7.0585938 77.335938 C 3.6368386 77.336784 0.091796875 79.569796 0.091796875 83.332031 L 0.091796875 86.998047 C 0.091796875 87.313503 0.23787214 87.628906 0.65039062 87.628906 L 13.273438 87.628906 C 13.56463 87.628906 13.832031 87.361499 13.832031 87.070312 L 13.832031 83.259766 C 13.832031 79.521764 10.530742 77.336758 7.0605469 77.335938 L 7.0585938 77.335938 z M 7.0605469 78.453125 C 9.9005195 78.453125 12.714844 80.152845 12.714844 83.259766 L 12.714844 86.511719 L 1.2109375 86.511719 L 1.2109375 83.332031 C 1.2109375 80.22511 4.2448186 78.453125 7.0605469 78.453125 z M 45.0625 97.365234 C 41.056847 97.365234 38.826172 101.03051 38.826172 104.69531 C 38.826172 108.36011 41.056847 112.02539 45.0625 112.02539 C 49.067243 112.02539 51.300781 108.31156 51.300781 104.69531 C 51.300781 101.03025 49.067308 97.365234 45.0625 97.365234 z M 118.14648 97.365234 C 114.14174 97.365234 111.9082 101.03051 111.9082 104.69531 C 111.9082 108.36011 114.14174 112.02539 118.14648 112.02539 C 122.15214 112.02539 124.38477 108.31156 124.38477 104.69531 C 124.38477 101.03025 122.15214 97.365234 118.14648 97.365234 z M 131.37695 97.365234 C 129.33776 97.365234 127.32244 98.384812 126.23047 100.13281 C 125.84221 100.788 126.78755 101.37111 127.17578 100.74023 C 128.0736 99.283427 129.726 98.505859 131.37695 98.505859 C 134.75082 98.505859 136.57031 101.85536 136.57031 104.86523 C 136.57031 107.92367 134.82309 110.88672 131.44922 110.88672 C 129.50707 110.88672 127.85679 109.98841 127.58984 107.94922 C 127.51705 107.19699 126.39986 107.34143 126.47266 108.09375 C 126.86091 110.71533 128.90044 112.02539 131.44922 112.02539 C 135.45396 112.02539 137.6875 108.5548 137.6875 104.86523 C 137.6875 101.20024 135.38176 97.365234 131.37695 97.365234 z M 0.74804688 97.779297 C 0.66968762 97.773844 0.58429233 97.790112 0.5 97.826172 C 0.33014633 97.850741 0.20952339 97.949287 0.13671875 98.119141 C 0.088200087 98.240499 0.062735616 98.360041 0.087890625 98.457031 L 0.087890625 110.98242 C 0.087890625 111.73465 1.203125 111.73465 1.203125 110.98242 L 1.203125 100.37695 L 7.8300781 111.27344 C 7.9514105 111.49183 8.1460071 111.56529 8.3886719 111.54102 C 8.6556006 111.51645 8.8984375 111.34647 8.8984375 110.98242 L 8.8984375 98.361328 C 8.8984375 97.609102 7.78125 97.609102 7.78125 98.361328 L 7.78125 108.99219 L 1.1796875 98.144531 C 1.1553671 98.023173 1.0822699 97.947837 0.9609375 97.875 C 0.9007343 97.814755 0.82816357 97.785692 0.75 97.779297 L 0.74804688 97.779297 z M 15.492188 97.783203 C 15.144609 97.788403 14.79942 98.114857 14.966797 98.554688 L 19.699219 111.05469 C 19.699219 111.22468 19.795516 111.32286 19.892578 111.41992 C 19.96537 111.49264 20.087939 111.54102 20.257812 111.54102 C 20.379145 111.54102 20.499768 111.49266 20.621094 111.41992 C 20.718156 111.32289 20.815573 111.22461 20.839844 111.05469 L 25.597656 98.554688 C 25.864578 97.85095 24.868236 97.464271 24.552734 98.167969 L 22.951172 102.31641 L 17.585938 102.31641 L 16.009766 98.167969 C 15.909668 97.894976 15.700741 97.780213 15.492188 97.783203 z M 170.44727 97.783203 C 170.09965 97.788403 169.75502 98.114857 169.92188 98.554688 L 174.6543 111.05469 C 174.6543 111.22468 174.75255 111.32286 174.84961 111.41992 C 174.92239 111.49264 175.04302 111.54102 175.21289 111.54102 C 175.33422 111.54102 175.4568 111.49266 175.57812 111.41992 C 175.67519 111.32289 175.7726 111.22461 175.79688 111.05469 L 180.55273 98.554688 C 180.81966 97.85095 179.82527 97.464271 179.50977 98.167969 L 177.9082 102.31641 L 172.54297 102.31641 L 170.9668 98.167969 C 170.86637 97.894976 170.65584 97.780213 170.44727 97.783203 z M 12.371094 97.796875 C 12.092036 97.796875 11.8125 97.985202 11.8125 98.361328 L 11.8125 111.10352 C 11.8125 111.85574 12.929688 111.85574 12.929688 111.10352 L 12.929688 98.361328 C 12.929688 97.985202 12.650151 97.796875 12.371094 97.796875 z M 36.085938 97.796875 C 35.80688 97.796875 35.527344 97.985202 35.527344 98.361328 L 35.527344 103.96875 L 34.046875 103.96875 L 28.125 98.021484 C 27.590285 97.487633 26.813825 98.265036 27.347656 98.798828 L 32.46875 103.96875 L 31.742188 103.96875 C 29.678685 103.96875 27.615234 105.5937 27.615234 107.80273 C 27.615234 109.98752 29.653634 111.61328 31.765625 111.61328 L 36.037109 111.61328 C 36.449634 111.61328 36.644531 111.41873 36.644531 111.05469 L 36.644531 98.361328 C 36.644531 97.985202 36.365001 97.796875 36.085938 97.796875 z M 61.378906 97.796875 C 61.099628 97.796875 60.820313 97.985202 60.820312 98.361328 L 60.820312 103.38672 L 57.154297 103.38672 C 54.946108 103.38672 52.761719 105.18099 52.761719 107.46289 C 52.761719 109.76903 54.946043 111.54102 57.154297 111.54102 L 61.306641 111.54102 C 61.597833 111.54102 61.9375 111.39486 61.9375 110.98242 L 61.9375 98.361328 C 61.9375 97.985202 61.658185 97.796875 61.378906 97.796875 z M 65.175781 97.796875 C 64.890439 97.796875 64.605469 97.985202 64.605469 98.361328 L 64.605469 110.98242 C 64.605469 111.34642 64.896276 111.54102 65.164062 111.54102 C 65.430991 111.56558 65.601324 111.44386 65.722656 111.20117 L 69.242188 103.55664 L 72.761719 111.20117 C 72.883051 111.44389 73.051431 111.56529 73.318359 111.54102 C 73.585282 111.51645 73.853516 111.34647 73.853516 110.98242 L 73.853516 98.361328 C 73.853516 97.609102 72.738281 97.609102 72.738281 98.361328 L 72.738281 108.43359 L 69.800781 102.07422 C 69.776537 101.97718 69.727102 101.88146 69.654297 101.80859 C 69.532971 101.68724 69.412048 101.63867 69.242188 101.63867 C 69.072321 101.63867 68.949457 101.68749 68.828125 101.80859 C 68.755327 101.88131 68.707858 101.97703 68.683594 102.07422 L 65.746094 108.48242 L 65.746094 98.361328 C 65.746094 97.985202 65.461124 97.796875 65.175781 97.796875 z M 167.32812 97.796875 C 167.04885 97.796875 166.76953 97.985202 166.76953 98.361328 L 166.76953 103.96875 L 165.28906 103.96875 L 159.36719 98.021484 C 158.83333 97.487633 158.05601 98.265036 158.58984 98.798828 L 163.71094 103.96875 L 162.98242 103.96875 C 160.91983 103.96875 158.85742 105.5937 158.85742 107.80273 C 158.85742 109.98752 160.89667 111.61328 163.00781 111.61328 L 167.28125 111.61328 C 167.69377 111.61328 167.88672 111.41873 167.88672 111.05469 L 167.88672 98.361328 C 167.88672 97.985202 167.6074 97.796875 167.32812 97.796875 z M 76.597656 97.802734 C 75.84543 97.802734 75.84543 98.917969 76.597656 98.917969 L 84.509766 98.917969 L 84.509766 104.38086 L 80.554688 104.38086 C 79.802462 104.38086 79.802462 105.49805 80.554688 105.49805 L 84.509766 105.49805 L 84.509766 110.42383 L 77.107422 110.42383 C 76.355196 110.42383 76.355196 111.54102 77.107422 111.54102 L 84.947266 111.54102 C 85.262722 111.61374 85.626953 111.39486 85.626953 110.98242 L 85.626953 98.361328 C 85.626953 98.191572 85.578331 98.070551 85.457031 97.949219 C 85.384233 97.852183 85.264443 97.802734 85.070312 97.802734 L 76.597656 97.802734 z M 195.05078 97.802734 C 191.31208 97.802734 189.12695 101.10331 189.12695 104.57422 C 189.12695 107.99658 191.3601 111.54102 195.12305 111.54102 L 198.78711 111.54102 C 199.10257 111.54102 199.41797 111.39486 199.41797 110.98242 L 199.41797 98.361328 C 199.41797 98.070142 199.15057 97.802734 198.85938 97.802734 L 195.05078 97.802734 z M 101.17773 97.84375 C 101.09938 97.839204 101.01398 97.856981 100.92969 97.892578 C 100.75983 97.917145 100.63921 98.013691 100.56641 98.183594 C 100.51789 98.304953 100.49242 98.426473 100.51758 98.523438 L 100.51758 111.04883 C 100.51758 111.80106 101.63281 111.80106 101.63281 111.04883 L 101.63281 100.44141 L 108.25977 111.33984 C 108.3811 111.55824 108.5757 111.63169 108.81836 111.60742 C 109.08529 111.58286 109.32812 111.41283 109.32812 111.04883 L 109.32812 98.427734 C 109.32812 97.675505 108.21094 97.675505 108.21094 98.427734 L 108.21094 109.05859 L 101.60938 98.208984 C 101.58505 98.087625 101.51196 98.014197 101.39062 97.941406 C 101.33043 97.881187 101.25785 97.8502 101.17969 97.84375 L 101.17773 97.84375 z M 92.814453 97.871094 C 92.535389 97.871094 92.255859 98.057468 92.255859 98.433594 L 92.255859 110.49805 L 87.644531 110.49805 C 86.892305 110.49805 86.892305 111.61328 87.644531 111.61328 L 97.984375 111.61328 C 98.736601 111.61328 98.736601 110.49805 97.984375 110.49805 L 93.371094 110.49805 L 93.371094 98.433594 C 93.371094 98.057468 93.093511 97.871094 92.814453 97.871094 z M 152.42578 97.871094 C 152.1465 97.871094 151.86719 98.057468 151.86719 98.433594 L 151.86719 110.49805 L 147.25781 110.49805 C 146.50559 110.49805 146.50559 111.61328 147.25781 111.61328 L 157.59766 111.61328 C 158.35079 111.61328 158.35079 110.49805 157.59766 110.49805 L 152.98438 110.49805 L 152.98438 98.433594 C 152.98438 98.057468 152.70505 97.871094 152.42578 97.871094 z M 45.068359 98.505859 C 48.442228 98.505859 50.189453 101.6855 50.189453 104.69531 C 50.189453 107.70513 48.466473 110.88672 45.068359 110.88672 C 41.69449 110.88672 39.947266 107.70513 39.947266 104.69531 C 39.947266 101.68543 41.69449 98.505859 45.068359 98.505859 z M 118.15234 98.505859 C 121.52621 98.505859 123.27539 101.6855 123.27539 104.69531 C 123.27539 107.70513 121.55046 110.88672 118.15234 110.88672 C 114.77847 110.88672 113.03125 107.70513 113.03125 104.69531 C 113.03125 101.6855 114.77847 98.505859 118.15234 98.505859 z M 195.04492 98.917969 L 198.29883 98.917969 L 198.29883 110.42383 L 195.11719 110.42383 C 192.01027 110.42383 190.24023 107.38995 190.24023 104.57422 C 190.24023 101.73425 191.938 98.917969 195.04492 98.917969 z M 18.003906 103.45898 L 22.541016 103.45898 L 20.259766 109.38086 L 18.003906 103.45898 z M 172.95898 103.45898 L 177.49805 103.45898 L 175.2168 109.38086 L 172.95898 103.45898 z M 57.158203 104.52539 L 60.824219 104.52539 L 60.824219 110.42383 L 57.158203 110.42383 C 55.605198 110.42383 53.90625 109.113 53.90625 107.46289 C 53.90625 105.78769 55.605198 104.52539 57.158203 104.52539 z M 31.746094 105.10938 L 35.53125 105.10938 L 35.53125 110.49805 L 31.769531 110.49805 C 30.288414 110.49805 28.734375 109.38089 28.734375 107.80273 C 28.734375 106.22542 30.289221 105.10938 31.746094 105.10938 z M 162.98438 105.10938 L 166.76953 105.10938 L 166.76953 110.49805 L 163.00781 110.49805 C 161.52761 110.49805 159.97266 109.38089 159.97266 107.80273 C 159.97266 106.22542 161.52841 105.10938 162.98438 105.10938 z M 184.64844 105.40039 C 184.44243 105.40689 184.24695 105.52321 184.17383 105.78711 L 182.11133 112.05078 C 181.86866 112.75536 182.91079 113.11949 183.17773 112.39062 L 185.24219 106.12891 C 185.36351 105.68908 184.99178 105.38993 184.64844 105.40039 z "
       style="fill:#0000ff;stroke-width:0.64998341" />
  </g>
</svg>
