<svg width="15.669" height="10.578" version="1.1" viewBox="0 0 4.145803 2.7989344" xmlns="http://www.w3.org/2000/svg">
	<g transform="matrix(.49999 0 0 .49999 -11.156 -85.089)" fill="#00f">
		<path transform="matrix(.26458 0 0 .26458 22.312 170.18)" d="m0.85938 0.011719c-0.42967 0-0.85938 0.29046-0.85938 0.86914v19.418c0 0.26154 0.073725 0.4481 0.26172 0.63477 0.11199 0.14929 0.29898 0.22461 0.59766 0.22461h11.502c1.1573 0 1.1573-1.7188 0-1.7188h-10.643v-18.559c0-0.57868-0.42971-0.86914-0.85938-0.86914zm16.398 0.0078125c-0.36225 0.077047-0.67773 0.38542-0.67773 0.86133v19.418c0 0.26154 0.07505 0.4481 0.26172 0.63477 0.11199 0.14929 0.29898 0.22461 0.59766 0.22461h13.033c1.1573 0 1.1573-1.7188 0-1.7188h-12.174v-8.4023h6.0879c1.1573 0 1.1573-1.7168 0-1.7168h-6.0879v-7.582h11.391c1.1573 0 1.1573-1.7168 0-1.7168h-12.064c-0.12133-0.027969-0.24644-0.027636-0.36719-0.0019531z" fill="#00f"/>
	</g>
</svg>
