<svg width="230.1" height="130.15" version="1.1" viewBox="0 0 60.880315 34.433872" xmlns="http://www.w3.org/2000/svg">
	<g transform="matrix(.75 0 0 .75 23.996 -112.7)" fill="#00f">
		<path transform="matrix(.26458 0 0 .26458 -31.995 150.27)" d="m20.416 0c-0.42933 0-0.85742 0.29048-0.85742 0.86914v12.174h-8.4043v-6.0859c0-1.1587-1.7168-1.1587-1.7168 0v6.0859h-7.5801v-11.391c0-1.1573-1.7188-1.1573-1.7188 0v12.062c-0.11199 0.48533 0.22472 1.0449 0.85938 1.0449h19.418c0.26132 0 0.4481-0.07343 0.63476-0.25977 0.14933-0.11187 0.22461-0.29892 0.22461-0.59766v-13.033c0-0.57866-0.43004-0.86914-0.85938-0.86914zm-0.02344 18.145c-0.21467-0.0093-0.44311 0.07006-0.64844 0.27539l-7.9551 7.8789v-1.1191c0-3.1733-2.4998-6.3477-5.8984-6.3477-3.3613 0-5.8633 3.1368-5.8633 6.3848v6.5723c0 0.63466 0.29937 0.93359 0.85938 0.93359h19.529c1.1573 0 1.1573-1.7188 0-1.7188h-8.627v-2.2773l9.1504-9.1113c0.616-0.616 0.09712-1.4427-0.54688-1.4707zm-14.502 2.4043c2.4267 0 4.1445 2.3909 4.1445 4.6309v5.8242h-8.291v-5.7871c0-2.2773 1.7185-4.668 4.1465-4.668zm-5.0527 15.617c-0.83913 0.03778-1.2364 1.3125-0.28906 1.6719l17.852 7.3574-17.852 7.3926c-1.0453 0.48665-0.40884 2.0928 0.67383 1.6074l19.604-8.1406c0.11199-0.0378 0.26276-0.07563 0.41211-0.1875 0.18667-0.18671 0.29883-0.41052 0.29883-0.67188 0-0.22412-0.11216-0.44809-0.29883-0.63476-0.11199-0.11187-0.22545-0.18719-0.41211-0.22461l-19.604-8.1035c-0.13533-0.05133-0.26489-0.0718-0.38477-0.06641zm19.662 15.686c-0.11878-0.0054-0.24748 0.01312-0.38281 0.06445l-19.23 7.2832c-0.26132 0-0.41121 0.14954-0.56055 0.29883-0.11199 0.11187-0.1875 0.29912-0.1875 0.56055 0 0.18671 0.075513 0.37204 0.1875 0.55859 0.14933 0.14929 0.2992 0.29852 0.56055 0.33594l19.23 7.3203c1.0827 0.41068 1.6803-1.1201 0.59766-1.6055l-6.3848-2.4648v-8.2539l6.3848-2.4258c0.98-0.35932 0.61663-1.6339-0.21484-1.6719zm-7.9258 4.7324v6.9844l-9.1133-3.5098zm-11.576 14.826c-1.1573 0-1.1573 1.7539 0 1.7539h8.4395v9.7852h-8.4395c-1.1573 0-1.1573 1.7188 0 1.7188h19.418c1.1573 0 1.1573-1.7188 0-1.7188h-9.2617v-9.7852h9.2617c1.1573 0 1.1573-1.7539 0-1.7539zm-0.11133 28.977c-1.1573 0-1.1573 1.7188 0 1.7188l12.658 0.0391c3.472 0 6.4609 1.9785 6.4609 5.6758s-2.9889 5.7129-6.4609 5.7129h-12.658c-1.1573 0-1.1573 1.7168 0 1.7168h12.658c4.4427 0 8.1777-2.7617 8.1777-7.4297s-3.7351-7.4336-8.1777-7.4336h-12.658zm9.9707 18.598c-5.2653 0-10.719 3.4333-10.719 9.2226v5.6407c0 0.48533 0.22472 0.9707 0.85938 0.9707h19.418c0.448 0 0.85938-0.41139 0.85938-0.85938v-5.8633c0-5.752-5.078-9.1113-10.418-9.1113zm0 1.7168c4.3693 0 8.7012 2.6145 8.7012 7.3945v5.0039h-17.701v-4.8926c0-4.78 4.668-7.5059 9-7.5059zm58.467 29.098c-6.1627 0-9.5957 5.6387-9.5957 11.277s3.433 11.277 9.5957 11.277c6.1613 0 9.5977-5.7134 9.5977-11.277 0-5.6387-3.4363-11.277-9.5977-11.277zm112.44 0c-6.1613 0-9.5976 5.6387-9.5976 11.277s3.4363 11.277 9.5976 11.277c6.1627 0 9.5977-5.7134 9.5977-11.277 0-5.6387-3.435-11.277-9.5977-11.277zm20.354 0c-3.1373 0-6.238 1.5685-7.918 4.2578-0.59733 1.008 0.8597 1.9042 1.457 0.93359 1.3813-2.2413 3.9209-3.4375 6.4609-3.4375 5.1907 0 7.9902 5.1545 7.9902 9.7852 0 4.7054-2.6882 9.2617-7.8789 9.2617-2.988 0-5.5268-1.3822-5.9375-4.5195-0.11199-1.1573-1.8308-0.93283-1.7188 0.22461 0.59733 4.0333 3.7349 6.0488 7.6562 6.0488 6.1613 0 9.5976-5.3396 9.5976-11.016 0-5.6386-3.5476-11.539-9.709-11.539zm-200.97 0.63476c-0.12133-9e-3 -0.25214 0.0183-0.38281 0.0742-0.26132 0.0378-0.44854 0.1879-0.56055 0.44922-0.074646 0.18671-0.11292 0.37227-0.074219 0.52149v19.27c0 1.1573 1.7168 1.1573 1.7168 0v-16.318l10.195 16.766c0.18667 0.336 0.48604 0.44945 0.85938 0.41211 0.41067-0.0378 0.7832-0.29928 0.7832-0.85937v-19.418c0-1.1573-1.7168-1.1573-1.7168 0v16.355l-10.158-16.691c-0.037417-0.18671-0.14927-0.30005-0.33594-0.41211-0.093335-0.0934-0.20484-0.13908-0.32617-0.14844zm22.682 8e-3c-0.53475 8e-3 -1.0661 0.51082-0.80859 1.1875l7.2812 19.23c0 0.26154 0.1495 0.41121 0.29883 0.56054 0.11199 0.11188 0.2992 0.1875 0.56055 0.1875 0.18667 0 0.37193-0.0756 0.55859-0.1875 0.14933-0.14929 0.2986-0.29912 0.33594-0.56054l7.3203-19.23c0.41066-1.0827-1.1201-1.6803-1.6055-0.59766l-2.4648 6.3848h-8.2539l-2.4258-6.3848c-0.154-0.42-0.47602-0.59444-0.79688-0.58984zm238.4 0c-0.5348 8e-3 -1.0653 0.51082-0.80859 1.1875l7.2812 19.23c0 0.26154 0.1495 0.41121 0.29883 0.56054 0.11198 0.11188 0.2992 0.1875 0.56054 0.1875 0.18667 0 0.37389-0.0756 0.56055-0.1875 0.14933-0.14929 0.2986-0.29912 0.33594-0.56054l7.3184-19.23c0.41067-1.0827-1.1201-1.6803-1.6055-0.59766l-2.4648 6.3848h-8.252l-2.4277-6.3848c-0.1545-0.42-0.47599-0.59444-0.79688-0.58984zm-243.2 0.0195c-0.42933 0-0.85938 0.29047-0.85938 0.86914v19.605c0 1.1573 1.7188 1.1573 1.7188 0v-19.605c0-0.57867-0.43004-0.86914-0.85937-0.86914zm36.484 0c-0.42933 0-0.85937 0.29047-0.85937 0.86914v8.627h-2.2773l-9.1113-9.1504c-0.82266-0.82133-2.0166 0.37406-1.1953 1.1953l7.8789 7.9551h-1.1191c-3.1747 0-6.3496 2.4998-6.3496 5.8984 0 3.3613 3.1374 5.8633 6.3867 5.8633h6.5723c0.63467 0 0.93359-0.29929 0.93359-0.85937v-19.529c0-0.57867-0.43004-0.86914-0.85938-0.86914zm38.912 0c-0.42967 0-0.85938 0.29047-0.85938 0.86914v7.7305h-5.6387c-3.3973 0-6.7598 2.7627-6.7598 6.2734 0 3.548 3.3624 6.2734 6.7598 6.2734h6.3867c0.448 0 0.9707-0.22483 0.9707-0.85937v-19.418c0-0.57867-0.42971-0.86914-0.85938-0.86914zm5.8437 0c-0.439 0-0.8789 0.29047-0.8789 0.86914v19.418c0 0.56001 0.44738 0.85937 0.85937 0.85937 0.41067 0.0378 0.67271-0.15006 0.85938-0.52344l5.4141-11.762 5.416 11.762c0.18667 0.37342 0.44676 0.56078 0.85743 0.52344 0.41066-0.0378 0.82226-0.29928 0.82226-0.85937v-19.418c0-1.1573-1.7168-1.1573-1.7168 0v15.496l-4.5195-9.7832c-0.0373-0.14929-0.1126-0.29806-0.22461-0.41016-0.18666-0.18671-0.37343-0.26172-0.63476-0.26172-0.26134 0-0.4481 0.0754-0.63477 0.26172-0.112 0.11188-0.18532 0.26064-0.22265 0.41016l-4.5195 9.8594v-15.572c0-0.57867-0.43795-0.86914-0.87695-0.86914zm55.191 0c-0.43867 0-0.87696 0.29047-0.87696 0.86914v19.418c0 0.56001 0.44871 0.85937 0.85938 0.85937 0.41067 0.0378 0.67076-0.15006 0.85742-0.52344l5.416-11.762 5.416 11.762c0.18667 0.37342 0.44676 0.56078 0.85743 0.52344 0.41066-0.0378 0.82226-0.29928 0.82226-0.85937v-19.418c0-1.1573-1.7168-1.1573-1.7168 0v15.496l-4.5195-9.7832c-0.0374-0.14929-0.11258-0.29806-0.22461-0.41016-0.18667-0.18671-0.37344-0.26172-0.63476-0.26172s-0.4481 0.0754-0.63477 0.26172c-0.11199 0.11188-0.18727 0.26064-0.22461 0.41016l-4.5176 9.8594v-15.572c0-0.57867-0.44024-0.86914-0.8789-0.86914zm101.97 0c-0.42967 0-0.85938 0.29047-0.85938 0.86914v8.627h-2.2773l-9.1113-9.1504c-0.82134-0.82133-2.0166 0.37406-1.1953 1.1953l7.8789 7.9551h-1.1211c-3.1733 0-6.3477 2.4998-6.3477 5.8984 0 3.3613 3.1368 5.8633 6.3848 5.8633h6.5742c0.63467 0 0.93359-0.29929 0.93359-0.85937v-19.529c0-0.57867-0.42971-0.86914-0.85937-0.86914zm-139.59 0.01c-1.1573 0-1.1573 1.7168 0 1.7168h12.174v8.4023h-6.0859c-1.1573 0-1.1573 1.7188 0 1.7188h6.0859v7.5801h-11.389c-1.1573 0-1.1573 1.7188 0 1.7188h12.062c0.48533 0.11188 1.0449-0.22483 1.0449-0.85937v-19.418c0-0.26117-0.0751-0.4481-0.26172-0.63477-0.112-0.14929-0.29703-0.22461-0.5957-0.22461h-13.035zm182.24 0c-5.752 0-9.1133 5.078-9.1133 10.418 0 5.2653 3.4353 10.719 9.2246 10.719h5.6387c0.48533 0 0.9707-0.22483 0.9707-0.85937v-19.418c0-0.44799-0.41137-0.85938-0.85937-0.85938h-5.8613zm-157.29 0.10352c-0.42934 0-0.85938 0.28852-0.85938 0.86719v18.561h-7.0957c-1.1573 0-1.1573 1.7168 0 1.7168h15.908c1.1573 0 1.1573-1.7168 0-1.7168h-7.0957v-18.561c0-0.57867-0.42809-0.86719-0.85742-0.86719zm91.713 0c-0.42967 0-0.85938 0.28852-0.85938 0.86719v18.561h-7.0938c-1.1573 0-1.1573 1.7168 0 1.7168h15.908c1.1587 0 1.1587-1.7168 0-1.7168h-7.0957v-18.561c0-0.57867-0.42971-0.86719-0.85937-0.86719zm-165.17 0.97812c5.1907 0 7.8789 4.8928 7.8789 9.5234s-2.6509 9.5234-7.8789 9.5234c-5.1907 0-7.8789-4.8928-7.8789-9.5234 0-4.6307 2.6882-9.5234 7.8789-9.5234zm112.44 0c5.1907 0 7.8809 4.8928 7.8809 9.5234s-2.6529 9.5234-7.8809 9.5234c-5.1907 0-7.8789-4.8928-7.8789-9.5234s2.6882-9.5234 7.8789-9.5234zm118.3 0.63477h5.0039v17.701h-4.8926c-4.78 0-7.5059-4.668-7.5059-9 0-4.3693 2.6145-8.7012 7.3945-8.7012zm-272.38 6.9844h6.9824l-3.5098 9.1113-3.4727-9.1113zm238.4 0h6.9824l-3.5098 9.1113zm-178.16 1.6426h5.6387v9.0742h-5.6387c-2.3893 0-5.0039-2.016-5.0039-4.5547 0-2.5773 2.6146-4.5195 5.0039-4.5195zm-39.098 0.89649h5.8242v8.291h-5.7871c-2.2787 0-4.668-1.7185-4.668-4.1465 0-2.4267 2.3895-4.1445 4.6309-4.1445zm201.91 0h5.8262v8.291h-5.7891c-2.2773 0-4.668-1.7185-4.668-4.1465 0-2.4267 2.3909-4.1445 4.6309-4.1445zm33.332 0.44922c-0.31694 0.01-0.61797 0.18969-0.73047 0.5957l-3.1738 9.6348c-0.37334 1.084 1.2319 1.6448 1.6426 0.52344l3.1738-9.6348c0.18666-0.67668-0.38387-1.1352-0.91211-1.1191z" fill="#00f"/>
	</g>
</svg>
